# xmcd
#
# Track frame offsets: 
#        150
#        19992
#        32587
#        55245
#        73637
#        94865
#        117410
#        137227
#        163110
#        185052
#
# Disc length: 2757 seconds
#
# Revision: 13
# Processed by: cddbd v1.5.2PL0 Copyright (c) Steve Scherf et al.
# Submitted via: ExactAudioCopyFreeDBPlugin 1.0
#
DISCID=900ac30a
DTITLE=Jennifer Warnes - The Hunter
DYEAR=1992
DGENRE=Pop
TTITLE0=Rock You Gently
TTITLE1=Somewhere, Somebody
TTITLE2=Big Noise, New York
TTITLE3=True Emotion
TTITLE4=Pretending To Care
TTITLE5=The Whole Of The Moon
TTITLE6=Lights Of Lousianne
TTITLE7=Way Down Deep
TTITLE8=The Hunter
TTITLE9=I Can't Hide
EXTD=
EXTT0=
EXTT1=
EXTT2=
EXTT3=
EXTT4=
EXTT5=
EXTT6=
EXTT7=
EXTT8=
EXTT9=
PLAYORDER=
